<mxfile host="app.diagrams.net" modified="2021-12-07T09:33:15.840Z" agent="5.0 (Windows)" etag="h15pWRT1vUd5cLw4z2cX" version="15.9.1" type="gitlab">
  <diagram id="prtHgNgQTEPvFCAcTncT" name="Page-1">
    <mxGraphModel dx="1609" dy="432" grid="1" gridSize="10" guides="1" tooltips="1" connect="1" arrows="1" fold="1" page="1" pageScale="1" pageWidth="827" pageHeight="1169" math="0" shadow="0">
      <root>
        <mxCell id="0" />
        <mxCell id="1" parent="0" />
        <mxCell id="-F_lxiA7HmCsZveyS7mI-16" style="edgeStyle=orthogonalEdgeStyle;rounded=0;orthogonalLoop=1;jettySize=auto;html=1;" parent="1" source="-F_lxiA7HmCsZveyS7mI-1" target="-F_lxiA7HmCsZveyS7mI-2" edge="1">
          <mxGeometry relative="1" as="geometry" />
        </mxCell>
        <mxCell id="-F_lxiA7HmCsZveyS7mI-1" value="&lt;div&gt;Data Object Access&lt;/div&gt;&lt;div&gt;DAO&lt;br&gt;&lt;/div&gt;" style="rounded=1;whiteSpace=wrap;html=1;" parent="1" vertex="1">
          <mxGeometry x="400" y="110" width="150" height="80" as="geometry" />
        </mxCell>
        <mxCell id="-F_lxiA7HmCsZveyS7mI-2" value="&lt;div&gt;Business Objects&lt;/div&gt;" style="rounded=1;whiteSpace=wrap;html=1;" parent="1" vertex="1">
          <mxGeometry x="400" y="280" width="150" height="80" as="geometry" />
        </mxCell>
        <mxCell id="-F_lxiA7HmCsZveyS7mI-13" style="edgeStyle=orthogonalEdgeStyle;rounded=0;orthogonalLoop=1;jettySize=auto;html=1;" parent="1" source="-F_lxiA7HmCsZveyS7mI-3" target="-F_lxiA7HmCsZveyS7mI-1" edge="1">
          <mxGeometry relative="1" as="geometry">
            <Array as="points">
              <mxPoint x="245" y="160" />
            </Array>
          </mxGeometry>
        </mxCell>
        <mxCell id="-F_lxiA7HmCsZveyS7mI-14" style="edgeStyle=orthogonalEdgeStyle;rounded=0;orthogonalLoop=1;jettySize=auto;html=1;" parent="1" source="-F_lxiA7HmCsZveyS7mI-3" target="-F_lxiA7HmCsZveyS7mI-4" edge="1">
          <mxGeometry relative="1" as="geometry">
            <Array as="points">
              <mxPoint x="245" y="490" />
            </Array>
          </mxGeometry>
        </mxCell>
        <mxCell id="-F_lxiA7HmCsZveyS7mI-15" style="edgeStyle=orthogonalEdgeStyle;rounded=0;orthogonalLoop=1;jettySize=auto;html=1;" parent="1" source="-F_lxiA7HmCsZveyS7mI-3" target="-F_lxiA7HmCsZveyS7mI-2" edge="1">
          <mxGeometry relative="1" as="geometry" />
        </mxCell>
        <mxCell id="-F_lxiA7HmCsZveyS7mI-3" value="Service" style="rounded=1;whiteSpace=wrap;html=1;" parent="1" vertex="1">
          <mxGeometry x="170" y="280" width="150" height="80" as="geometry" />
        </mxCell>
        <mxCell id="-F_lxiA7HmCsZveyS7mI-17" value="" style="edgeStyle=orthogonalEdgeStyle;rounded=0;orthogonalLoop=1;jettySize=auto;html=1;" parent="1" source="-F_lxiA7HmCsZveyS7mI-4" target="-F_lxiA7HmCsZveyS7mI-2" edge="1">
          <mxGeometry relative="1" as="geometry" />
        </mxCell>
        <mxCell id="-F_lxiA7HmCsZveyS7mI-36" style="edgeStyle=orthogonalEdgeStyle;rounded=0;orthogonalLoop=1;jettySize=auto;html=1;" parent="1" source="-F_lxiA7HmCsZveyS7mI-4" target="-F_lxiA7HmCsZveyS7mI-35" edge="1">
          <mxGeometry relative="1" as="geometry" />
        </mxCell>
        <mxCell id="-F_lxiA7HmCsZveyS7mI-4" value="Web" style="rounded=1;whiteSpace=wrap;html=1;" parent="1" vertex="1">
          <mxGeometry x="400" y="450" width="150" height="80" as="geometry" />
        </mxCell>
        <mxCell id="-F_lxiA7HmCsZveyS7mI-12" style="edgeStyle=orthogonalEdgeStyle;rounded=0;orthogonalLoop=1;jettySize=auto;html=1;" parent="1" source="-F_lxiA7HmCsZveyS7mI-6" target="-F_lxiA7HmCsZveyS7mI-3" edge="1">
          <mxGeometry relative="1" as="geometry" />
        </mxCell>
        <mxCell id="-F_lxiA7HmCsZveyS7mI-6" value="&lt;div&gt;Interface Homme Machine&lt;/div&gt;&lt;div&gt;IHM&lt;br&gt;&lt;/div&gt;" style="rounded=1;whiteSpace=wrap;html=1;" parent="1" vertex="1">
          <mxGeometry x="-70" y="280" width="150" height="80" as="geometry" />
        </mxCell>
        <mxCell id="-F_lxiA7HmCsZveyS7mI-20" style="edgeStyle=orthogonalEdgeStyle;rounded=0;orthogonalLoop=1;jettySize=auto;html=1;" parent="1" source="-F_lxiA7HmCsZveyS7mI-19" target="-F_lxiA7HmCsZveyS7mI-6" edge="1">
          <mxGeometry relative="1" as="geometry">
            <Array as="points">
              <mxPoint x="-170" y="320" />
              <mxPoint x="-170" y="320" />
            </Array>
          </mxGeometry>
        </mxCell>
        <mxCell id="-F_lxiA7HmCsZveyS7mI-19" value="Client" style="shape=umlActor;verticalLabelPosition=bottom;verticalAlign=top;html=1;outlineConnect=0;" parent="1" vertex="1">
          <mxGeometry x="-240" y="280" width="30" height="60" as="geometry" />
        </mxCell>
        <mxCell id="-F_lxiA7HmCsZveyS7mI-21" value="exécute les fonctions" style="text;html=1;strokeColor=none;fillColor=none;align=center;verticalAlign=middle;whiteSpace=wrap;rounded=0;" parent="1" vertex="1">
          <mxGeometry x="90" y="280" width="60" height="30" as="geometry" />
        </mxCell>
        <mxCell id="-F_lxiA7HmCsZveyS7mI-23" value="exécute les fonctions" style="text;html=1;strokeColor=none;fillColor=none;align=center;verticalAlign=middle;whiteSpace=wrap;rounded=0;" parent="1" vertex="1">
          <mxGeometry x="270" y="120" width="60" height="30" as="geometry" />
        </mxCell>
        <mxCell id="-F_lxiA7HmCsZveyS7mI-25" value="exécute les fonctions" style="text;html=1;strokeColor=none;fillColor=none;align=center;verticalAlign=middle;whiteSpace=wrap;rounded=0;" parent="1" vertex="1">
          <mxGeometry x="260" y="450" width="60" height="30" as="geometry" />
        </mxCell>
        <mxCell id="-F_lxiA7HmCsZveyS7mI-26" value="traite les objets" style="text;html=1;strokeColor=none;fillColor=none;align=center;verticalAlign=middle;whiteSpace=wrap;rounded=0;" parent="1" vertex="1">
          <mxGeometry x="330" y="280" width="60" height="30" as="geometry" />
        </mxCell>
        <mxCell id="-F_lxiA7HmCsZveyS7mI-27" value="traite les objets" style="text;html=1;strokeColor=none;fillColor=none;align=center;verticalAlign=middle;whiteSpace=wrap;rounded=0;" parent="1" vertex="1">
          <mxGeometry x="414" y="220" width="60" height="30" as="geometry" />
        </mxCell>
        <mxCell id="-F_lxiA7HmCsZveyS7mI-29" value="traite les objets" style="text;html=1;strokeColor=none;fillColor=none;align=center;verticalAlign=middle;whiteSpace=wrap;rounded=0;" parent="1" vertex="1">
          <mxGeometry x="414" y="400" width="60" height="30" as="geometry" />
        </mxCell>
        <mxCell id="-F_lxiA7HmCsZveyS7mI-31" value="récupère les données" style="text;html=1;strokeColor=none;fillColor=none;align=center;verticalAlign=middle;whiteSpace=wrap;rounded=0;" parent="1" vertex="1">
          <mxGeometry x="590" y="450" width="60" height="30" as="geometry" />
        </mxCell>
        <mxCell id="-F_lxiA7HmCsZveyS7mI-33" value="interagit" style="text;html=1;strokeColor=none;fillColor=none;align=center;verticalAlign=middle;whiteSpace=wrap;rounded=0;" parent="1" vertex="1">
          <mxGeometry x="-170" y="290" width="60" height="30" as="geometry" />
        </mxCell>
        <mxCell id="-F_lxiA7HmCsZveyS7mI-35" value="&lt;div&gt;Application Programming Interface&lt;/div&gt;&lt;div&gt;API&lt;br&gt;&lt;/div&gt;" style="ellipse;whiteSpace=wrap;html=1;" parent="1" vertex="1">
          <mxGeometry x="680" y="450" width="120" height="80" as="geometry" />
        </mxCell>
      </root>
    </mxGraphModel>
  </diagram>
</mxfile>
